<?xml version="1.0" encoding="UTF-8"?> <svg xmlns="http://www.w3.org/2000/svg" width="78" height="85" viewBox="0 0 78 85" fill="none"> <path d="M19.5989 22.6632H2L23.1328 1.5304V19.1293C23.1328 21.0729 21.5425 22.6632 19.5989 22.6632Z" stroke="#000639" stroke-width="3" stroke-miterlimit="10" stroke-linecap="round" stroke-linejoin="round"></path> <path d="M68.9322 51.0404V78.9936C68.9322 80.9373 67.3419 82.5275 65.3983 82.5275H5.53391C3.59026 82.5275 2 80.9373 2 78.9936V29.9077" stroke="#000639" stroke-width="3" stroke-miterlimit="10" stroke-linecap="round" stroke-linejoin="round"></path> <path d="M30.1653 1.5304H65.3983C67.342 1.5304 68.9322 3.12065 68.9322 5.0643V22.6632" stroke="#000639" stroke-width="3" stroke-miterlimit="10" stroke-linecap="round" stroke-linejoin="round"></path> <path d="M46.1032 65.7768L32.427 71.9965L38.6467 58.3203L68.5435 28.4234L76.0001 35.9153L46.1032 65.7768Z" stroke="#000639" stroke-width="3" stroke-miterlimit="10" stroke-linecap="round" stroke-linejoin="round"></path> <path d="M70.1337 41.7462L62.6418 34.2897" stroke="#000639" stroke-width="3" stroke-miterlimit="10" stroke-linejoin="round"></path> <path d="M46.103 65.8122L38.6111 58.2849" stroke="#000639" stroke-width="3" stroke-miterlimit="10" stroke-linejoin="round"></path> </svg> 